<svg width="20" height="20" viewBox="0 0 20 20" fill="none" xmlns="http://www.w3.org/2000/svg">
<g id="&#240;&#159;&#166;&#134; icon &#34;cross&#34;">
<path id="Vector" fill-rule="evenodd" clip-rule="evenodd" d="M12.35 10L19.5 2.85C19.8167 2.55 20 2.13333 20 1.66667C20 0.75 19.25 0 18.3333 0C17.8667 0 17.45 0.183333 17.15 0.483333L10 7.65L2.85 0.483333C2.55 0.183333 2.13333 0 1.66667 0C0.75 0 0 0.75 0 1.66667C0 2.13333 0.183333 2.55 0.483333 2.85L7.65 10L0.5 17.15C0.183334 17.45 0 17.8667 0 18.3333C0 19.25 0.75 20 1.66667 20C2.13333 20 2.55 19.8167 2.85 19.5167L10 12.35L17.15 19.5C17.45 19.8167 17.8667 20 18.3333 20C19.25 20 20 19.25 20 18.3333C20 17.8667 19.8167 17.45 19.5167 17.15L12.35 10Z" fill="black"/>
</g>
</svg>
